<mxfile host="app.diagrams.net" modified="2021-06-24T15:09:27.256Z" agent="5.0 (X11; Linux x86_64) AppleWebKit/537.36 (KHTML, like Gecko) Chrome/91.0.4472.114 Safari/537.36" etag="NSZHUXo3tSEypWFMyCJS" version="14.7.7" type="github">
  <diagram id="mjgqmSHZGCYBxVDJmJig" name="Page-1">
    <mxGraphModel dx="1030" dy="630" grid="1" gridSize="10" guides="1" tooltips="1" connect="1" arrows="1" fold="1" page="1" pageScale="2" pageWidth="827" pageHeight="1169" math="0" shadow="0">
      <root>
        <mxCell id="0" />
        <mxCell id="1" parent="0" />
        <mxCell id="FAwiAq0qkd5cn3caJAeM-74" value="" style="rounded=0;whiteSpace=wrap;html=1;fontSize=25;align=right;fontStyle=0" parent="1" vertex="1">
          <mxGeometry x="230" y="280" width="141" height="120" as="geometry" />
        </mxCell>
        <mxCell id="FAwiAq0qkd5cn3caJAeM-73" value="" style="rounded=0;whiteSpace=wrap;html=1;fontSize=25;align=right;fontStyle=0" parent="1" vertex="1">
          <mxGeometry x="210" y="803" width="149" height="147" as="geometry" />
        </mxCell>
        <mxCell id="16TBc1RyOengqVH6E9E0-25" value="" style="rounded=0;whiteSpace=wrap;html=1;fontSize=25;fontStyle=0" parent="1" vertex="1">
          <mxGeometry x="381.18" y="670" width="340" height="313" as="geometry" />
        </mxCell>
        <mxCell id="16TBc1RyOengqVH6E9E0-18" style="rounded=0;orthogonalLoop=1;jettySize=auto;html=1;exitX=0.5;exitY=1;exitDx=0;exitDy=0;entryX=0.228;entryY=0;entryDx=0;entryDy=0;entryPerimeter=0;fontSize=25;startArrow=blockThin;startFill=1;endArrow=classicThin;endFill=1;strokeWidth=1;fontStyle=0" parent="1" source="16TBc1RyOengqVH6E9E0-1" target="16TBc1RyOengqVH6E9E0-12" edge="1">
          <mxGeometry relative="1" as="geometry" />
        </mxCell>
        <mxCell id="16TBc1RyOengqVH6E9E0-1" value="" style="whiteSpace=wrap;html=1;aspect=fixed;fontStyle=0;fontSize=25;" parent="1" vertex="1">
          <mxGeometry x="403.18" y="683" width="128.82" height="128.82" as="geometry" />
        </mxCell>
        <mxCell id="16TBc1RyOengqVH6E9E0-4" value="L2" style="rounded=0;whiteSpace=wrap;html=1;fontSize=25;fillColor=#ffe6cc;strokeColor=#d79b00;fontStyle=0" parent="1" vertex="1">
          <mxGeometry x="411.18" y="763" width="110" height="30" as="geometry" />
        </mxCell>
        <mxCell id="16TBc1RyOengqVH6E9E0-6" value="&lt;font style=&quot;font-size: 25px;&quot;&gt;L1 D&lt;/font&gt;" style="rounded=0;whiteSpace=wrap;html=1;fontSize=25;fillColor=#ffe6cc;strokeColor=#d79b00;fontStyle=0" parent="1" vertex="1">
          <mxGeometry x="469.18" y="713" width="58.82" height="30" as="geometry" />
        </mxCell>
        <mxCell id="16TBc1RyOengqVH6E9E0-7" value="&lt;font style=&quot;font-size: 25px;&quot;&gt;L1 I&lt;/font&gt;" style="rounded=0;whiteSpace=wrap;html=1;fontSize=25;fillColor=#ffe6cc;strokeColor=#d79b00;fontStyle=0" parent="1" vertex="1">
          <mxGeometry x="408.18" y="713" width="50" height="30" as="geometry" />
        </mxCell>
        <mxCell id="16TBc1RyOengqVH6E9E0-8" value="" style="whiteSpace=wrap;html=1;aspect=fixed;fontStyle=0;fontSize=25;" parent="1" vertex="1">
          <mxGeometry x="561.1800000000001" y="683" width="130" height="130" as="geometry" />
        </mxCell>
        <mxCell id="16TBc1RyOengqVH6E9E0-9" value="L2" style="rounded=0;whiteSpace=wrap;html=1;fontSize=25;fillColor=#ffe6cc;strokeColor=#d79b00;fontStyle=0" parent="1" vertex="1">
          <mxGeometry x="571.1800000000001" y="763" width="110" height="30" as="geometry" />
        </mxCell>
        <mxCell id="16TBc1RyOengqVH6E9E0-10" value="&lt;font style=&quot;font-size: 25px;&quot;&gt;L1 D&lt;/font&gt;" style="rounded=0;whiteSpace=wrap;html=1;fontSize=25;fillColor=#ffe6cc;strokeColor=#d79b00;fontStyle=0" parent="1" vertex="1">
          <mxGeometry x="627.18" y="713" width="58.82" height="30" as="geometry" />
        </mxCell>
        <mxCell id="16TBc1RyOengqVH6E9E0-11" value="&lt;font style=&quot;font-size: 25px;&quot;&gt;L1 I&lt;/font&gt;" style="rounded=0;whiteSpace=wrap;html=1;fontSize=25;fillColor=#ffe6cc;strokeColor=#d79b00;fontStyle=0" parent="1" vertex="1">
          <mxGeometry x="567.1800000000001" y="713" width="50" height="30" as="geometry" />
        </mxCell>
        <mxCell id="16TBc1RyOengqVH6E9E0-12" value="LLC" style="rounded=0;whiteSpace=wrap;html=1;fontSize=25;fillColor=#ffe6cc;strokeColor=#d79b00;fontStyle=0" parent="1" vertex="1">
          <mxGeometry x="401.18" y="843" width="290" height="50" as="geometry" />
        </mxCell>
        <mxCell id="16TBc1RyOengqVH6E9E0-13" value="NVM" style="rounded=0;whiteSpace=wrap;html=1;fontSize=25;fillColor=#dae8fc;strokeColor=#6c8ebf;fontStyle=0" parent="1" vertex="1">
          <mxGeometry x="381.18" y="1008" width="340" height="80" as="geometry" />
        </mxCell>
        <mxCell id="16TBc1RyOengqVH6E9E0-23" style="edgeStyle=none;rounded=0;orthogonalLoop=1;jettySize=auto;html=1;exitX=0.5;exitY=1;exitDx=0;exitDy=0;fontSize=25;startArrow=blockThin;startFill=1;endArrow=classicThin;endFill=1;strokeWidth=1;fontStyle=0" parent="1" source="16TBc1RyOengqVH6E9E0-14" edge="1">
          <mxGeometry relative="1" as="geometry">
            <mxPoint x="546.1800000000001" y="1013" as="targetPoint" />
          </mxGeometry>
        </mxCell>
        <mxCell id="16TBc1RyOengqVH6E9E0-14" value="MC" style="rounded=0;whiteSpace=wrap;html=1;fontSize=25;fillColor=#dae8fc;strokeColor=#6c8ebf;fontStyle=0" parent="1" vertex="1">
          <mxGeometry x="401.18" y="923" width="290" height="40" as="geometry" />
        </mxCell>
        <mxCell id="16TBc1RyOengqVH6E9E0-16" value="WPQ" style="rounded=0;whiteSpace=wrap;html=1;fontSize=25;fillColor=#f8cecc;strokeColor=#b85450;fontStyle=0" parent="1" vertex="1">
          <mxGeometry x="591.1800000000001" y="933" width="90" height="20" as="geometry" />
        </mxCell>
        <mxCell id="16TBc1RyOengqVH6E9E0-19" style="rounded=0;orthogonalLoop=1;jettySize=auto;html=1;entryX=0.228;entryY=0;entryDx=0;entryDy=0;entryPerimeter=0;fontSize=25;startArrow=blockThin;startFill=1;endArrow=classicThin;endFill=1;strokeWidth=1;fontStyle=0;exitX=0.5;exitY=1;exitDx=0;exitDy=0;" parent="1" source="16TBc1RyOengqVH6E9E0-8" edge="1">
          <mxGeometry relative="1" as="geometry">
            <mxPoint x="627" y="820" as="sourcePoint" />
            <mxPoint x="626.7399999999999" y="843" as="targetPoint" />
          </mxGeometry>
        </mxCell>
        <mxCell id="16TBc1RyOengqVH6E9E0-20" style="rounded=0;orthogonalLoop=1;jettySize=auto;html=1;exitX=0.5;exitY=1;exitDx=0;exitDy=0;entryX=0.228;entryY=0;entryDx=0;entryDy=0;entryPerimeter=0;fontSize=25;startArrow=blockThin;startFill=1;endArrow=classicThin;endFill=1;strokeWidth=1;fontStyle=0" parent="1" edge="1">
          <mxGeometry relative="1" as="geometry">
            <mxPoint x="545.1800000000001" y="893" as="sourcePoint" />
            <mxPoint x="546.3" y="923" as="targetPoint" />
          </mxGeometry>
        </mxCell>
        <mxCell id="FAwiAq0qkd5cn3caJAeM-2" value="" style="rounded=0;whiteSpace=wrap;html=1;fontSize=25;fontStyle=0" parent="1" vertex="1">
          <mxGeometry x="384.18" y="170" width="340" height="320" as="geometry" />
        </mxCell>
        <mxCell id="FAwiAq0qkd5cn3caJAeM-3" style="rounded=0;orthogonalLoop=1;jettySize=auto;html=1;exitX=0.5;exitY=1;exitDx=0;exitDy=0;entryX=0.228;entryY=0;entryDx=0;entryDy=0;entryPerimeter=0;fontSize=25;startArrow=blockThin;startFill=1;endArrow=classicThin;endFill=1;strokeWidth=1;fontStyle=0" parent="1" source="FAwiAq0qkd5cn3caJAeM-4" target="FAwiAq0qkd5cn3caJAeM-12" edge="1">
          <mxGeometry relative="1" as="geometry" />
        </mxCell>
        <mxCell id="FAwiAq0qkd5cn3caJAeM-4" value="" style="whiteSpace=wrap;html=1;aspect=fixed;fontStyle=0;fontSize=25;" parent="1" vertex="1">
          <mxGeometry x="404.18" y="190" width="130" height="130" as="geometry" />
        </mxCell>
        <mxCell id="FAwiAq0qkd5cn3caJAeM-5" value="L2" style="rounded=0;whiteSpace=wrap;html=1;fontSize=25;fillColor=#ffe6cc;strokeColor=#d79b00;fontStyle=0" parent="1" vertex="1">
          <mxGeometry x="414.18" y="270" width="110" height="30" as="geometry" />
        </mxCell>
        <mxCell id="FAwiAq0qkd5cn3caJAeM-6" value="&lt;font style=&quot;font-size: 25px;&quot;&gt;L1 D&lt;/font&gt;" style="rounded=0;whiteSpace=wrap;html=1;fontSize=25;fillColor=#ffe6cc;strokeColor=#d79b00;fontStyle=0" parent="1" vertex="1">
          <mxGeometry x="474.18" y="220" width="55.82" height="30" as="geometry" />
        </mxCell>
        <mxCell id="FAwiAq0qkd5cn3caJAeM-7" value="&lt;font style=&quot;font-size: 25px;&quot;&gt;L1 I&lt;/font&gt;" style="rounded=0;whiteSpace=wrap;html=1;fontSize=25;fillColor=#ffe6cc;strokeColor=#d79b00;fontStyle=0" parent="1" vertex="1">
          <mxGeometry x="414.18" y="220" width="50" height="30" as="geometry" />
        </mxCell>
        <mxCell id="FAwiAq0qkd5cn3caJAeM-8" value="" style="whiteSpace=wrap;html=1;aspect=fixed;fontStyle=0;fontSize=25;" parent="1" vertex="1">
          <mxGeometry x="564.1800000000001" y="190" width="130" height="130" as="geometry" />
        </mxCell>
        <mxCell id="FAwiAq0qkd5cn3caJAeM-9" value="L2" style="rounded=0;whiteSpace=wrap;html=1;fontSize=25;fillColor=#ffe6cc;strokeColor=#d79b00;fontStyle=0" parent="1" vertex="1">
          <mxGeometry x="574.1800000000001" y="270" width="110" height="30" as="geometry" />
        </mxCell>
        <mxCell id="FAwiAq0qkd5cn3caJAeM-10" value="&lt;font style=&quot;font-size: 25px;&quot;&gt;L1 D&lt;/font&gt;" style="rounded=0;whiteSpace=wrap;html=1;fontSize=25;fillColor=#ffe6cc;strokeColor=#d79b00;fontStyle=0" parent="1" vertex="1">
          <mxGeometry x="634.18" y="220" width="55.82" height="30" as="geometry" />
        </mxCell>
        <mxCell id="FAwiAq0qkd5cn3caJAeM-11" value="&lt;font style=&quot;font-size: 25px;&quot;&gt;L1 I&lt;/font&gt;" style="rounded=0;whiteSpace=wrap;html=1;fontSize=25;fillColor=#ffe6cc;strokeColor=#d79b00;fontStyle=0" parent="1" vertex="1">
          <mxGeometry x="574.1800000000001" y="220" width="50" height="30" as="geometry" />
        </mxCell>
        <mxCell id="FAwiAq0qkd5cn3caJAeM-12" value="LLC" style="rounded=0;whiteSpace=wrap;html=1;fontSize=25;fillColor=#ffe6cc;strokeColor=#d79b00;fontStyle=0" parent="1" vertex="1">
          <mxGeometry x="404.18" y="350" width="290" height="50" as="geometry" />
        </mxCell>
        <mxCell id="FAwiAq0qkd5cn3caJAeM-13" value="NVM" style="rounded=0;whiteSpace=wrap;html=1;fontSize=25;fillColor=#dae8fc;strokeColor=#6c8ebf;fontStyle=0" parent="1" vertex="1">
          <mxGeometry x="384.18" y="515" width="340" height="80" as="geometry" />
        </mxCell>
        <mxCell id="FAwiAq0qkd5cn3caJAeM-14" style="edgeStyle=none;rounded=0;orthogonalLoop=1;jettySize=auto;html=1;exitX=0.5;exitY=1;exitDx=0;exitDy=0;fontSize=25;startArrow=blockThin;startFill=1;endArrow=classicThin;endFill=1;strokeWidth=1;fontStyle=0" parent="1" source="FAwiAq0qkd5cn3caJAeM-15" edge="1">
          <mxGeometry relative="1" as="geometry">
            <mxPoint x="549.1800000000001" y="520" as="targetPoint" />
          </mxGeometry>
        </mxCell>
        <mxCell id="FAwiAq0qkd5cn3caJAeM-15" value="MC" style="rounded=0;whiteSpace=wrap;html=1;fontSize=25;fillColor=#dae8fc;strokeColor=#6c8ebf;fontStyle=0" parent="1" vertex="1">
          <mxGeometry x="404.18" y="430" width="290" height="40" as="geometry" />
        </mxCell>
        <mxCell id="FAwiAq0qkd5cn3caJAeM-16" value="WPQ" style="rounded=0;whiteSpace=wrap;html=1;fontSize=25;fillColor=#f8cecc;strokeColor=#b85450;fontStyle=0" parent="1" vertex="1">
          <mxGeometry x="594.1800000000001" y="440" width="90" height="20" as="geometry" />
        </mxCell>
        <mxCell id="FAwiAq0qkd5cn3caJAeM-17" style="rounded=0;orthogonalLoop=1;jettySize=auto;html=1;exitX=0.5;exitY=1;exitDx=0;exitDy=0;entryX=0.228;entryY=0;entryDx=0;entryDy=0;entryPerimeter=0;fontSize=25;startArrow=blockThin;startFill=1;endArrow=classicThin;endFill=1;strokeWidth=1;fontStyle=0" parent="1" edge="1">
          <mxGeometry relative="1" as="geometry">
            <mxPoint x="628.6200000000001" y="320" as="sourcePoint" />
            <mxPoint x="629.74" y="350" as="targetPoint" />
          </mxGeometry>
        </mxCell>
        <mxCell id="FAwiAq0qkd5cn3caJAeM-18" style="rounded=0;orthogonalLoop=1;jettySize=auto;html=1;exitX=0.5;exitY=1;exitDx=0;exitDy=0;entryX=0.228;entryY=0;entryDx=0;entryDy=0;entryPerimeter=0;fontSize=25;startArrow=blockThin;startFill=1;endArrow=classicThin;endFill=1;strokeWidth=1;fontStyle=0" parent="1" edge="1">
          <mxGeometry relative="1" as="geometry">
            <mxPoint x="548.1800000000001" y="400" as="sourcePoint" />
            <mxPoint x="549.3" y="430" as="targetPoint" />
          </mxGeometry>
        </mxCell>
        <mxCell id="FAwiAq0qkd5cn3caJAeM-64" value="Store (A,1)" style="text;html=1;strokeColor=none;fillColor=none;align=center;verticalAlign=middle;whiteSpace=wrap;rounded=0;fontSize=25;fontStyle=0" parent="1" vertex="1">
          <mxGeometry x="229" y="300" width="140" height="20" as="geometry" />
        </mxCell>
        <mxCell id="FAwiAq0qkd5cn3caJAeM-65" value="Store (B,1)" style="text;html=1;strokeColor=none;fillColor=none;align=center;verticalAlign=middle;whiteSpace=wrap;rounded=0;fontSize=25;fontStyle=0" parent="1" vertex="1">
          <mxGeometry x="225" y="338" width="146" height="20" as="geometry" />
        </mxCell>
        <mxCell id="FAwiAq0qkd5cn3caJAeM-68" value="PBarrier( )" style="text;html=1;strokeColor=none;fillColor=none;align=center;verticalAlign=middle;whiteSpace=wrap;rounded=0;fontSize=25;fontStyle=0" parent="1" vertex="1">
          <mxGeometry x="197" y="845" width="155" height="20" as="geometry" />
        </mxCell>
        <mxCell id="FAwiAq0qkd5cn3caJAeM-69" value="Store (A,1)" style="text;html=1;strokeColor=none;fillColor=none;align=center;verticalAlign=middle;whiteSpace=wrap;rounded=0;fontSize=25;fontStyle=0" parent="1" vertex="1">
          <mxGeometry x="217" y="813" width="125" height="20" as="geometry" />
        </mxCell>
        <mxCell id="FAwiAq0qkd5cn3caJAeM-70" value="Store (B,1)" style="text;html=1;strokeColor=none;fillColor=none;align=center;verticalAlign=middle;whiteSpace=wrap;rounded=0;fontSize=25;fontStyle=0" parent="1" vertex="1">
          <mxGeometry x="210" y="876" width="130" height="20" as="geometry" />
        </mxCell>
        <mxCell id="FAwiAq0qkd5cn3caJAeM-75" value="1" style="rounded=0;whiteSpace=wrap;html=1;fontSize=25;align=center;fontStyle=0" parent="1" vertex="1">
          <mxGeometry x="438.18" y="540" width="40" height="20" as="geometry" />
        </mxCell>
        <mxCell id="FAwiAq0qkd5cn3caJAeM-76" value="1" style="rounded=0;whiteSpace=wrap;html=1;fontSize=25;align=center;fontStyle=0" parent="1" vertex="1">
          <mxGeometry x="449.18" y="365" width="40" height="20" as="geometry" />
        </mxCell>
        <mxCell id="FAwiAq0qkd5cn3caJAeM-77" value="A" style="text;html=1;strokeColor=none;fillColor=none;align=center;verticalAlign=middle;whiteSpace=wrap;rounded=0;fontSize=25;fontStyle=0" parent="1" vertex="1">
          <mxGeometry x="419.18" y="365" width="40" height="20" as="geometry" />
        </mxCell>
        <mxCell id="FAwiAq0qkd5cn3caJAeM-78" value="B" style="text;html=1;strokeColor=none;fillColor=none;align=center;verticalAlign=middle;whiteSpace=wrap;rounded=0;fontSize=25;fontStyle=0" parent="1" vertex="1">
          <mxGeometry x="408.18" y="540" width="40" height="20" as="geometry" />
        </mxCell>
        <mxCell id="FAwiAq0qkd5cn3caJAeM-80" value="" style="rounded=0;whiteSpace=wrap;html=1;fontSize=25;fontStyle=0" parent="1" vertex="1">
          <mxGeometry x="840" y="170" width="340" height="320" as="geometry" />
        </mxCell>
        <mxCell id="FAwiAq0qkd5cn3caJAeM-81" style="rounded=0;orthogonalLoop=1;jettySize=auto;html=1;entryX=0.228;entryY=0;entryDx=0;entryDy=0;entryPerimeter=0;fontSize=25;startArrow=blockThin;startFill=1;endArrow=classicThin;endFill=1;strokeWidth=1;fontStyle=0" parent="1" target="FAwiAq0qkd5cn3caJAeM-90" edge="1">
          <mxGeometry relative="1" as="geometry">
            <mxPoint x="926" y="320" as="sourcePoint" />
          </mxGeometry>
        </mxCell>
        <mxCell id="FAwiAq0qkd5cn3caJAeM-82" value="" style="whiteSpace=wrap;html=1;aspect=fixed;fontStyle=0;fontSize=25;" parent="1" vertex="1">
          <mxGeometry x="860" y="190" width="130" height="130" as="geometry" />
        </mxCell>
        <mxCell id="FAwiAq0qkd5cn3caJAeM-83" value="L2" style="rounded=0;whiteSpace=wrap;html=1;fontSize=25;fillColor=#ffe6cc;strokeColor=#d79b00;fontStyle=0" parent="1" vertex="1">
          <mxGeometry x="870" y="270" width="110" height="30" as="geometry" />
        </mxCell>
        <mxCell id="FAwiAq0qkd5cn3caJAeM-84" value="&lt;font style=&quot;font-size: 25px;&quot;&gt;L1 D&lt;/font&gt;" style="rounded=0;whiteSpace=wrap;html=1;fontSize=25;fillColor=#ffe6cc;strokeColor=#d79b00;fontStyle=0" parent="1" vertex="1">
          <mxGeometry x="925" y="220" width="60" height="30" as="geometry" />
        </mxCell>
        <mxCell id="FAwiAq0qkd5cn3caJAeM-85" value="&lt;font style=&quot;font-size: 25px;&quot;&gt;L1 I&lt;/font&gt;" style="rounded=0;whiteSpace=wrap;html=1;fontSize=25;fillColor=#ffe6cc;strokeColor=#d79b00;fontStyle=0" parent="1" vertex="1">
          <mxGeometry x="866" y="220" width="50" height="30" as="geometry" />
        </mxCell>
        <mxCell id="FAwiAq0qkd5cn3caJAeM-86" value="" style="whiteSpace=wrap;html=1;aspect=fixed;fontStyle=0;fontSize=25;" parent="1" vertex="1">
          <mxGeometry x="1020" y="190" width="130" height="130" as="geometry" />
        </mxCell>
        <mxCell id="FAwiAq0qkd5cn3caJAeM-87" value="L2" style="rounded=0;whiteSpace=wrap;html=1;fontSize=25;fillColor=#ffe6cc;strokeColor=#d79b00;fontStyle=0" parent="1" vertex="1">
          <mxGeometry x="1030" y="270" width="110" height="30" as="geometry" />
        </mxCell>
        <mxCell id="FAwiAq0qkd5cn3caJAeM-88" value="&lt;font style=&quot;font-size: 25px;&quot;&gt;L1 D&lt;/font&gt;" style="rounded=0;whiteSpace=wrap;html=1;fontSize=25;fillColor=#ffe6cc;strokeColor=#d79b00;fontStyle=0" parent="1" vertex="1">
          <mxGeometry x="1086" y="220" width="60" height="30" as="geometry" />
        </mxCell>
        <mxCell id="FAwiAq0qkd5cn3caJAeM-89" value="&lt;font style=&quot;font-size: 25px;&quot;&gt;L1 I&lt;/font&gt;" style="rounded=0;whiteSpace=wrap;html=1;fontSize=25;fillColor=#ffe6cc;strokeColor=#d79b00;fontStyle=0" parent="1" vertex="1">
          <mxGeometry x="1026" y="220" width="50" height="30" as="geometry" />
        </mxCell>
        <mxCell id="FAwiAq0qkd5cn3caJAeM-90" value="LLC" style="rounded=0;whiteSpace=wrap;html=1;fontSize=25;fillColor=#ffe6cc;strokeColor=#d79b00;fontStyle=0" parent="1" vertex="1">
          <mxGeometry x="860" y="350" width="290" height="50" as="geometry" />
        </mxCell>
        <mxCell id="FAwiAq0qkd5cn3caJAeM-91" value="NVM" style="rounded=0;whiteSpace=wrap;html=1;fontSize=25;fillColor=#dae8fc;strokeColor=#6c8ebf;fontStyle=0" parent="1" vertex="1">
          <mxGeometry x="840" y="515" width="340" height="80" as="geometry" />
        </mxCell>
        <mxCell id="FAwiAq0qkd5cn3caJAeM-92" style="edgeStyle=none;rounded=0;orthogonalLoop=1;jettySize=auto;html=1;exitX=0.5;exitY=1;exitDx=0;exitDy=0;fontSize=25;startArrow=blockThin;startFill=1;endArrow=classicThin;endFill=1;strokeWidth=1;fontStyle=0" parent="1" source="FAwiAq0qkd5cn3caJAeM-93" edge="1">
          <mxGeometry relative="1" as="geometry">
            <mxPoint x="1005" y="520" as="targetPoint" />
          </mxGeometry>
        </mxCell>
        <mxCell id="FAwiAq0qkd5cn3caJAeM-93" value="MC" style="rounded=0;whiteSpace=wrap;html=1;fontSize=25;fillColor=#dae8fc;strokeColor=#6c8ebf;fontStyle=0" parent="1" vertex="1">
          <mxGeometry x="860" y="430" width="290" height="40" as="geometry" />
        </mxCell>
        <mxCell id="FAwiAq0qkd5cn3caJAeM-94" value="WPQ" style="rounded=0;whiteSpace=wrap;html=1;fontSize=25;fillColor=#f8cecc;strokeColor=#b85450;fontStyle=0" parent="1" vertex="1">
          <mxGeometry x="1050" y="440" width="90" height="20" as="geometry" />
        </mxCell>
        <mxCell id="FAwiAq0qkd5cn3caJAeM-95" style="rounded=0;orthogonalLoop=1;jettySize=auto;html=1;entryX=0.228;entryY=0;entryDx=0;entryDy=0;entryPerimeter=0;fontSize=25;startArrow=blockThin;startFill=1;endArrow=classicThin;endFill=1;strokeWidth=1;fontStyle=0" parent="1" edge="1">
          <mxGeometry relative="1" as="geometry">
            <mxPoint x="1086" y="320" as="sourcePoint" />
            <mxPoint x="1085.56" y="350" as="targetPoint" />
          </mxGeometry>
        </mxCell>
        <mxCell id="FAwiAq0qkd5cn3caJAeM-96" style="rounded=0;orthogonalLoop=1;jettySize=auto;html=1;entryX=0.228;entryY=0;entryDx=0;entryDy=0;entryPerimeter=0;fontSize=25;startArrow=blockThin;startFill=1;endArrow=classicThin;endFill=1;strokeWidth=1;fontStyle=0" parent="1" edge="1">
          <mxGeometry relative="1" as="geometry">
            <mxPoint x="1005" y="400" as="sourcePoint" />
            <mxPoint x="1005.1199999999999" y="430" as="targetPoint" />
          </mxGeometry>
        </mxCell>
        <mxCell id="FAwiAq0qkd5cn3caJAeM-99" value="1" style="rounded=0;whiteSpace=wrap;html=1;fontSize=25;align=center;fontStyle=0" parent="1" vertex="1">
          <mxGeometry x="894" y="540" width="40" height="20" as="geometry" />
        </mxCell>
        <mxCell id="FAwiAq0qkd5cn3caJAeM-102" value="B" style="text;html=1;strokeColor=none;fillColor=none;align=center;verticalAlign=middle;whiteSpace=wrap;rounded=0;fontSize=25;fontStyle=0" parent="1" vertex="1">
          <mxGeometry x="864" y="540" width="40" height="20" as="geometry" />
        </mxCell>
        <mxCell id="FAwiAq0qkd5cn3caJAeM-104" value="" style="html=1;shadow=0;dashed=0;align=center;verticalAlign=middle;shape=mxgraph.arrows2.arrow;dy=0.6;dx=40;notch=0;fontSize=25;fontStyle=0" parent="1" vertex="1">
          <mxGeometry x="754" y="327" width="80" height="30" as="geometry" />
        </mxCell>
        <mxCell id="FAwiAq0qkd5cn3caJAeM-105" value="" style="verticalLabelPosition=bottom;verticalAlign=top;html=1;shape=mxgraph.basic.8_point_star;fontSize=25;align=center;strokeColor=#B20000;fontStyle=0;fillColor=#FF9999;" parent="1" vertex="1">
          <mxGeometry x="653.18" y="297" width="101.82" height="90" as="geometry" />
        </mxCell>
        <mxCell id="FAwiAq0qkd5cn3caJAeM-106" value="crash" style="text;html=1;strokeColor=none;fillColor=none;align=center;verticalAlign=middle;whiteSpace=wrap;rounded=0;fontSize=25;fontStyle=0" parent="1" vertex="1">
          <mxGeometry x="681.0000000000001" y="331" width="40" height="20" as="geometry" />
        </mxCell>
        <mxCell id="FAwiAq0qkd5cn3caJAeM-107" value="1" style="rounded=0;whiteSpace=wrap;html=1;fontSize=25;align=center;fontStyle=0" parent="1" vertex="1">
          <mxGeometry x="441.18" y="1038" width="40" height="20" as="geometry" />
        </mxCell>
        <mxCell id="FAwiAq0qkd5cn3caJAeM-108" value="A" style="text;html=1;strokeColor=none;fillColor=none;align=center;verticalAlign=middle;whiteSpace=wrap;rounded=0;fontSize=25;fontStyle=0" parent="1" vertex="1">
          <mxGeometry x="411.18" y="1038" width="40" height="20" as="geometry" />
        </mxCell>
        <mxCell id="FAwiAq0qkd5cn3caJAeM-109" value="1" style="rounded=0;whiteSpace=wrap;html=1;fontSize=25;align=center;fontStyle=0" parent="1" vertex="1">
          <mxGeometry x="450.18" y="858" width="40" height="20" as="geometry" />
        </mxCell>
        <mxCell id="FAwiAq0qkd5cn3caJAeM-110" value="B" style="text;html=1;strokeColor=none;fillColor=none;align=center;verticalAlign=middle;whiteSpace=wrap;rounded=0;fontSize=25;fontStyle=0" parent="1" vertex="1">
          <mxGeometry x="420.18" y="858" width="40" height="20" as="geometry" />
        </mxCell>
        <mxCell id="FAwiAq0qkd5cn3caJAeM-113" value="" style="rounded=0;whiteSpace=wrap;html=1;fontSize=25;fontStyle=0" parent="1" vertex="1">
          <mxGeometry x="836.09" y="670" width="340" height="313" as="geometry" />
        </mxCell>
        <mxCell id="FAwiAq0qkd5cn3caJAeM-114" style="rounded=0;orthogonalLoop=1;jettySize=auto;html=1;exitX=0.5;exitY=1;exitDx=0;exitDy=0;entryX=0.228;entryY=0;entryDx=0;entryDy=0;entryPerimeter=0;fontSize=25;startArrow=blockThin;startFill=1;endArrow=classicThin;endFill=1;strokeWidth=1;fontStyle=0" parent="1" source="FAwiAq0qkd5cn3caJAeM-115" target="FAwiAq0qkd5cn3caJAeM-123" edge="1">
          <mxGeometry relative="1" as="geometry" />
        </mxCell>
        <mxCell id="FAwiAq0qkd5cn3caJAeM-115" value="" style="whiteSpace=wrap;html=1;aspect=fixed;fontStyle=0;fontSize=25;" parent="1" vertex="1">
          <mxGeometry x="856.09" y="683" width="133.91" height="133.91" as="geometry" />
        </mxCell>
        <mxCell id="FAwiAq0qkd5cn3caJAeM-116" value="L2" style="rounded=0;whiteSpace=wrap;html=1;fontSize=25;fillColor=#ffe6cc;strokeColor=#d79b00;fontStyle=0" parent="1" vertex="1">
          <mxGeometry x="866.0899999999999" y="763" width="110" height="30" as="geometry" />
        </mxCell>
        <mxCell id="FAwiAq0qkd5cn3caJAeM-117" value="&lt;font style=&quot;font-size: 25px;&quot;&gt;L1 D&lt;/font&gt;" style="rounded=0;whiteSpace=wrap;html=1;fontSize=25;fillColor=#ffe6cc;strokeColor=#d79b00;fontStyle=0" parent="1" vertex="1">
          <mxGeometry x="923.09" y="713" width="63.91" height="30" as="geometry" />
        </mxCell>
        <mxCell id="FAwiAq0qkd5cn3caJAeM-118" value="&lt;font style=&quot;font-size: 25px;&quot;&gt;L1 I&lt;/font&gt;" style="rounded=0;whiteSpace=wrap;html=1;fontSize=25;fillColor=#ffe6cc;strokeColor=#d79b00;fontStyle=0" parent="1" vertex="1">
          <mxGeometry x="862.0899999999999" y="713" width="50" height="30" as="geometry" />
        </mxCell>
        <mxCell id="FAwiAq0qkd5cn3caJAeM-119" value="" style="whiteSpace=wrap;html=1;aspect=fixed;fontStyle=0;fontSize=25;" parent="1" vertex="1">
          <mxGeometry x="1016.09" y="683" width="137" height="137" as="geometry" />
        </mxCell>
        <mxCell id="FAwiAq0qkd5cn3caJAeM-120" value="L2" style="rounded=0;whiteSpace=wrap;html=1;fontSize=25;fillColor=#ffe6cc;strokeColor=#d79b00;fontStyle=0" parent="1" vertex="1">
          <mxGeometry x="1026.0900000000001" y="763" width="110" height="30" as="geometry" />
        </mxCell>
        <mxCell id="FAwiAq0qkd5cn3caJAeM-121" value="&lt;font style=&quot;font-size: 25px;&quot;&gt;L1 D&lt;/font&gt;" style="rounded=0;whiteSpace=wrap;html=1;fontSize=25;fillColor=#ffe6cc;strokeColor=#d79b00;fontStyle=0" parent="1" vertex="1">
          <mxGeometry x="1078.09" y="713" width="63.91" height="30" as="geometry" />
        </mxCell>
        <mxCell id="FAwiAq0qkd5cn3caJAeM-122" value="&lt;font style=&quot;font-size: 25px;&quot;&gt;L1 I&lt;/font&gt;" style="rounded=0;whiteSpace=wrap;html=1;fontSize=25;fillColor=#ffe6cc;strokeColor=#d79b00;fontStyle=0" parent="1" vertex="1">
          <mxGeometry x="1021.0900000000001" y="713" width="50" height="30" as="geometry" />
        </mxCell>
        <mxCell id="FAwiAq0qkd5cn3caJAeM-123" value="LLC" style="rounded=0;whiteSpace=wrap;html=1;fontSize=25;fillColor=#ffe6cc;strokeColor=#d79b00;fontStyle=0" parent="1" vertex="1">
          <mxGeometry x="856.0899999999999" y="843" width="290" height="50" as="geometry" />
        </mxCell>
        <mxCell id="FAwiAq0qkd5cn3caJAeM-124" value="NVM" style="rounded=0;whiteSpace=wrap;html=1;fontSize=25;fillColor=#dae8fc;strokeColor=#6c8ebf;fontStyle=0" parent="1" vertex="1">
          <mxGeometry x="836.0899999999999" y="1008" width="340" height="80" as="geometry" />
        </mxCell>
        <mxCell id="FAwiAq0qkd5cn3caJAeM-125" style="edgeStyle=none;rounded=0;orthogonalLoop=1;jettySize=auto;html=1;exitX=0.5;exitY=1;exitDx=0;exitDy=0;fontSize=25;startArrow=blockThin;startFill=1;endArrow=classicThin;endFill=1;strokeWidth=1;fontStyle=0" parent="1" source="FAwiAq0qkd5cn3caJAeM-126" edge="1">
          <mxGeometry relative="1" as="geometry">
            <mxPoint x="1001.0900000000001" y="1013" as="targetPoint" />
          </mxGeometry>
        </mxCell>
        <mxCell id="FAwiAq0qkd5cn3caJAeM-126" value="MC" style="rounded=0;whiteSpace=wrap;html=1;fontSize=25;fillColor=#dae8fc;strokeColor=#6c8ebf;fontStyle=0" parent="1" vertex="1">
          <mxGeometry x="856.0899999999999" y="923" width="290" height="40" as="geometry" />
        </mxCell>
        <mxCell id="FAwiAq0qkd5cn3caJAeM-127" value="WPQ" style="rounded=0;whiteSpace=wrap;html=1;fontSize=25;fillColor=#f8cecc;strokeColor=#b85450;fontStyle=0" parent="1" vertex="1">
          <mxGeometry x="1046.0900000000001" y="933" width="90" height="20" as="geometry" />
        </mxCell>
        <mxCell id="FAwiAq0qkd5cn3caJAeM-128" style="rounded=0;orthogonalLoop=1;jettySize=auto;html=1;exitX=0.5;exitY=1;exitDx=0;exitDy=0;entryX=0.228;entryY=0;entryDx=0;entryDy=0;entryPerimeter=0;fontSize=25;startArrow=blockThin;startFill=1;endArrow=classicThin;endFill=1;strokeWidth=1;fontStyle=0" parent="1" edge="1">
          <mxGeometry relative="1" as="geometry">
            <mxPoint x="1080.5299999999997" y="813" as="sourcePoint" />
            <mxPoint x="1081.6499999999996" y="843" as="targetPoint" />
          </mxGeometry>
        </mxCell>
        <mxCell id="FAwiAq0qkd5cn3caJAeM-129" style="rounded=0;orthogonalLoop=1;jettySize=auto;html=1;exitX=0.5;exitY=1;exitDx=0;exitDy=0;entryX=0.228;entryY=0;entryDx=0;entryDy=0;entryPerimeter=0;fontSize=25;startArrow=blockThin;startFill=1;endArrow=classicThin;endFill=1;strokeWidth=1;fontStyle=0" parent="1" edge="1">
          <mxGeometry relative="1" as="geometry">
            <mxPoint x="1000.0900000000001" y="893" as="sourcePoint" />
            <mxPoint x="1001.21" y="923" as="targetPoint" />
          </mxGeometry>
        </mxCell>
        <mxCell id="FAwiAq0qkd5cn3caJAeM-132" value="1" style="rounded=0;whiteSpace=wrap;html=1;fontSize=25;align=center;fontStyle=0" parent="1" vertex="1">
          <mxGeometry x="896.0899999999999" y="1038" width="40" height="20" as="geometry" />
        </mxCell>
        <mxCell id="FAwiAq0qkd5cn3caJAeM-133" value="A" style="text;html=1;strokeColor=none;fillColor=none;align=center;verticalAlign=middle;whiteSpace=wrap;rounded=0;fontSize=25;fontStyle=0" parent="1" vertex="1">
          <mxGeometry x="866.0899999999999" y="1038" width="40" height="20" as="geometry" />
        </mxCell>
        <mxCell id="FAwiAq0qkd5cn3caJAeM-139" value=".&lt;br style=&quot;font-size: 25px;&quot;&gt;." style="text;html=1;strokeColor=none;fillColor=none;align=center;verticalAlign=middle;whiteSpace=wrap;rounded=0;fontSize=25;fontStyle=0" parent="1" vertex="1">
          <mxGeometry x="261" y="370" width="90" height="20" as="geometry" />
        </mxCell>
        <mxCell id="FAwiAq0qkd5cn3caJAeM-140" value=".&lt;br style=&quot;font-size: 25px;&quot;&gt;." style="text;html=1;strokeColor=none;fillColor=none;align=center;verticalAlign=middle;whiteSpace=wrap;rounded=0;fontSize=25;fontStyle=0" parent="1" vertex="1">
          <mxGeometry x="218" y="903" width="90" height="20" as="geometry" />
        </mxCell>
        <mxCell id="FAwiAq0qkd5cn3caJAeM-141" value="" style="html=1;shadow=0;dashed=0;align=center;verticalAlign=middle;shape=mxgraph.arrows2.arrow;dy=0.67;dx=20;notch=0;fontSize=25;fontColor=#FFFFFF;fillColor=#0000FF;fontStyle=0" parent="1" vertex="1">
          <mxGeometry x="357" y="354" width="45" height="10" as="geometry" />
        </mxCell>
        <mxCell id="FAwiAq0qkd5cn3caJAeM-147" value="(Without persistent barrier)" style="text;html=1;strokeColor=none;fillColor=none;align=center;verticalAlign=middle;whiteSpace=wrap;rounded=0;fontSize=25;fontStyle=0" parent="1" vertex="1">
          <mxGeometry x="571.18" y="627" width="469.09" height="20" as="geometry" />
        </mxCell>
        <mxCell id="CRLOc1WB8V-iHWx_uGIP-1" value="" style="verticalLabelPosition=bottom;verticalAlign=top;html=1;shape=mxgraph.basic.8_point_star;fontSize=25;align=center;strokeColor=#B20000;fontStyle=0;fillColor=#FF9999;" parent="1" vertex="1">
          <mxGeometry x="652.18" y="789" width="95.82" height="91" as="geometry" />
        </mxCell>
        <mxCell id="CRLOc1WB8V-iHWx_uGIP-5" value="" style="html=1;shadow=0;dashed=0;align=center;verticalAlign=middle;shape=mxgraph.arrows2.arrow;dy=0.6;dx=40;notch=0;fontSize=25;fontStyle=0" parent="1" vertex="1">
          <mxGeometry x="747" y="815" width="80" height="33" as="geometry" />
        </mxCell>
        <mxCell id="CRLOc1WB8V-iHWx_uGIP-6" value="crash" style="text;html=1;strokeColor=none;fillColor=none;align=center;verticalAlign=middle;whiteSpace=wrap;rounded=0;fontSize=25;fontStyle=0" parent="1" vertex="1">
          <mxGeometry x="680.0000000000001" y="822" width="40" height="20" as="geometry" />
        </mxCell>
        <mxCell id="CRLOc1WB8V-iHWx_uGIP-9" value="" style="rounded=0;whiteSpace=wrap;html=1;fontSize=25;strokeWidth=2;strokeColor=#666666;fontColor=#333333;fontStyle=0;fillColor=none;dashed=1;" parent="1" vertex="1">
          <mxGeometry x="383" y="409" width="385" height="210" as="geometry" />
        </mxCell>
        <mxCell id="CRLOc1WB8V-iHWx_uGIP-14" value="(With persistent barrier)" style="text;html=1;strokeColor=none;fillColor=none;align=center;verticalAlign=middle;whiteSpace=wrap;rounded=0;fontSize=25;fontStyle=0" parent="1" vertex="1">
          <mxGeometry x="550.91" y="1117" width="469.09" height="20" as="geometry" />
        </mxCell>
        <mxCell id="CRLOc1WB8V-iHWx_uGIP-17" value="" style="html=1;shadow=0;dashed=0;align=center;verticalAlign=middle;shape=mxgraph.arrows2.arrow;dy=0.67;dx=20;notch=0;fontSize=25;fontColor=#FFFFFF;fillColor=#0000FF;fontStyle=0" parent="1" vertex="1">
          <mxGeometry x="330" y="895" width="45" height="10" as="geometry" />
        </mxCell>
        <mxCell id="rw0pJkleUwbmweoXINBP-2" value="persistent domain" style="text;html=1;strokeColor=none;fillColor=none;align=center;verticalAlign=middle;whiteSpace=wrap;rounded=0;fontSize=25;rotation=270;fontStyle=0;fontFamily=Helvetica;" parent="1" vertex="1">
          <mxGeometry x="627.87" y="500.5" width="226.63" height="20" as="geometry" />
        </mxCell>
        <mxCell id="rw0pJkleUwbmweoXINBP-3" value="" style="rounded=0;whiteSpace=wrap;html=1;fontSize=25;strokeWidth=2;strokeColor=#666666;fontColor=#333333;fontStyle=0;fillColor=none;dashed=1;" parent="1" vertex="1">
          <mxGeometry x="834" y="409" width="385" height="210" as="geometry" />
        </mxCell>
        <mxCell id="rw0pJkleUwbmweoXINBP-4" value="persistent domain" style="text;html=1;strokeColor=none;fillColor=none;align=center;verticalAlign=middle;whiteSpace=wrap;rounded=0;fontSize=25;rotation=270;fontStyle=0;fontFamily=Helvetica;" parent="1" vertex="1">
          <mxGeometry x="1076.87" y="500.5" width="226.63" height="20" as="geometry" />
        </mxCell>
        <mxCell id="rw0pJkleUwbmweoXINBP-5" value="" style="rounded=0;whiteSpace=wrap;html=1;fontSize=25;strokeWidth=2;strokeColor=#666666;fontColor=#333333;fontStyle=0;fillColor=none;dashed=1;" parent="1" vertex="1">
          <mxGeometry x="379.18" y="902" width="385" height="210" as="geometry" />
        </mxCell>
        <mxCell id="rw0pJkleUwbmweoXINBP-6" value="persistent domain" style="text;html=1;strokeColor=none;fillColor=none;align=center;verticalAlign=middle;whiteSpace=wrap;rounded=0;fontSize=25;rotation=270;fontStyle=0;fontFamily=Helvetica;" parent="1" vertex="1">
          <mxGeometry x="624.05" y="993.5" width="226.63" height="20" as="geometry" />
        </mxCell>
        <mxCell id="rw0pJkleUwbmweoXINBP-7" value="" style="rounded=0;whiteSpace=wrap;html=1;fontSize=25;strokeWidth=2;strokeColor=#666666;fontColor=#333333;fontStyle=0;fillColor=none;dashed=1;" parent="1" vertex="1">
          <mxGeometry x="834.0899999999999" y="898.5" width="385" height="210" as="geometry" />
        </mxCell>
        <mxCell id="rw0pJkleUwbmweoXINBP-8" value="persistent domain" style="text;html=1;strokeColor=none;fillColor=none;align=center;verticalAlign=middle;whiteSpace=wrap;rounded=0;fontSize=25;rotation=270;fontStyle=0;fontFamily=Helvetica;" parent="1" vertex="1">
          <mxGeometry x="1078.96" y="989" width="226.63" height="20" as="geometry" />
        </mxCell>
        <mxCell id="m-glO5hM-z1kY4RQVLUW-1" value="" style="rounded=0;whiteSpace=wrap;html=1;align=left;strokeColor=#0000CC;" parent="1" vertex="1">
          <mxGeometry x="553.91" y="90" width="460" height="70" as="geometry" />
        </mxCell>
        <mxCell id="m-glO5hM-z1kY4RQVLUW-3" value="A, B - NVM Addresses" style="text;html=1;strokeColor=none;fillColor=none;align=left;verticalAlign=middle;whiteSpace=wrap;rounded=0;fontSize=25;fontStyle=0" parent="1" vertex="1">
          <mxGeometry x="558.09" y="106" width="458" height="20" as="geometry" />
        </mxCell>
        <mxCell id="m-glO5hM-z1kY4RQVLUW-4" value="Store (A, 1) - Write 1 to NVM address A" style="text;html=1;strokeColor=none;fillColor=none;align=left;verticalAlign=middle;whiteSpace=wrap;rounded=0;fontSize=25;fontStyle=0" parent="1" vertex="1">
          <mxGeometry x="558.0899999999999" y="135" width="458" height="20" as="geometry" />
        </mxCell>
      </root>
    </mxGraphModel>
  </diagram>
</mxfile>
